<svg width="26" height="38" viewBox="0 0 26 38" fill="none" xmlns="http://www.w3.org/2000/svg">
<path d="M22.6253 8.81566C21.6087 8.81566 20.7294 11.0635 20.2937 14.3479C19.9478 8.50817 18.9655 4.29607 17.8063 4.29607C16.7685 4.29607 15.8707 7.68112 15.4482 12.5904C15.0786 5.55784 14.1174 0.547852 12.9899 0.547852C11.8624 0.547852 10.9012 5.55784 10.5315 12.5877C10.1064 7.67847 9.21122 4.29342 8.17348 4.29342C7.01692 4.29342 6.03463 8.50552 5.68607 14.3452C5.25038 11.0609 4.37107 8.81301 3.35445 8.81301C1.90743 8.81566 0.735016 13.375 0.735016 19C0.735016 24.625 1.90743 29.187 3.3571 29.187C4.37371 29.187 5.25302 26.9391 5.68871 23.6548C6.03463 29.4945 7.01692 33.7066 8.17612 33.7066C9.21387 33.7066 10.1117 30.3215 10.5341 25.4123C10.9038 32.4421 11.865 37.4521 12.9925 37.4521C14.12 37.4521 15.0812 32.4421 15.4509 25.4123C15.876 30.3215 16.7712 33.7066 17.8089 33.7066C18.9655 33.7066 19.9478 29.4945 20.2963 23.6548C20.732 26.9391 21.6113 29.187 22.6279 29.187C24.075 29.187 25.25 24.6276 25.25 19C25.25 13.3724 24.0776 8.81301 22.6279 8.81301L22.6253 8.81566Z" fill="#425E91"/>
</svg>
